# xmcd
#
# Track frame offsets:
#	150
#	11192
#	23080
#	30667
#	40420
#	52140
#	62622
#	76282
#	86342
#	95472
#	109905
#	120737
#	130527
#	141092
#	155185
#	172870
#	181517
#	191932
#
# Disc length: 2710 seconds
#
# Revision: 0
# Processed by: cddbd v1.4PL0 Copyright (c) Steve Scherf et al.
# Submitted via: dBpowerAMP V4.0
#
DISCID=eb0a9412
DTITLE=Jay-Ray and Gee - A Cappella New Orleans
DYEAR=1998
DGENRE=Acapella
TTITLE0=May The Lord God Bless You Real Good
TTITLE1=Proud Mary
TTITLE2=Return To Sender
TTITLE3=Up On The Roof
TTITLE4=I Can't Get Next To You
TTITLE5=Mustang Sally
TTITLE6=Go To The Mardi Gras
TTITLE7=Ain't Too Proud To Beg
TTITLE8=Only You (and You Alone)
TTITLE9=You Haven't Done Nothing
TTITLE10=I'm Not A Juvenile Delinquent
TTITLE11=Power In The Name of Jesus
TTITLE12=When The Saints Go
TTITLE13=He Did It For You And Me
TTITLE14=Jesus When The Sun Goes Down
TTITLE15=We Are Soldiers
TTITLE16=Just A Closer Walk With Thee
TTITLE17=Running For Jesus
EXTD=Royal Street Doo-Wop. See these guys live on Royal Street in New Orleans!
EXTT0=
EXTT1=
EXTT2=
EXTT3=
EXTT4=
EXTT5=
EXTT6=
EXTT7=
EXTT8=
EXTT9=
EXTT10=
EXTT11=
EXTT12=
EXTT13=
EXTT14=
EXTT15=
EXTT16=
EXTT17=
PLAYORDER=
